REM DIRINDEX 1\2\5,1\2\6,1\2\7,1\2\8,1\3\9,1\3\10,1\3\11,1\4\12,1\4\13,1\4\14,1\4\15,1\4\16
REM DIRNAME folder01,folder02,folder03,folder04,folder05,folder06,folder07,folder08,folder09,folder10,folder11,folder12,folder13,folder14,folder15,folder16
TITLE ""
FILE "1200_sec03_0747_0755.mp3" MP3
  TRACK 01 AUDIO
    TITLE "0:"
    INDEX 01 00:00:00
  TRACK 02 AUDIO
    TITLE "12:cjc034_06649"
    INDEX 01 00:00:17
  TRACK 03 AUDIO
    TITLE "0:"
    INDEX 01 00:01:40
  TRACK 04 AUDIO
    TITLE "13:cjc034_06650"
    INDEX 01 00:02:04
  TRACK 05 AUDIO
    TITLE "0:"
    INDEX 01 00:02:73
  TRACK 06 AUDIO
    TITLE "14:cjc034_06651"
    INDEX 01 00:03:31
  TRACK 07 AUDIO
    TITLE "0:"
    INDEX 01 00:04:56
  TRACK 08 AUDIO
    TITLE "15:cjc034_06652"
    INDEX 01 00:05:18
  TRACK 09 AUDIO
    TITLE "0:"
    INDEX 01 00:09:42
  TRACK 10 AUDIO
    TITLE "12:cjc034_06653"
    INDEX 01 00:11:03
  TRACK 11 AUDIO
    TITLE "0:"
    INDEX 01 00:12:07
  TRACK 12 AUDIO
    TITLE "13:cjc034_06654"
    INDEX 01 00:12:38
  TRACK 13 AUDIO
    TITLE "0:"
    INDEX 01 00:13:32
  TRACK 14 AUDIO
    TITLE "14:cjc034_06655"
    INDEX 01 00:13:65
  TRACK 15 AUDIO
    TITLE "0:"
    INDEX 01 00:14:68
  TRACK 16 AUDIO
    TITLE "15:cjc034_06656"
    INDEX 01 00:15:27
  TRACK 17 AUDIO
    TITLE "0:"
    INDEX 01 00:19:05
  TRACK 18 AUDIO
    TITLE "12:cjc034_06657"
    INDEX 01 00:20:39
  TRACK 19 AUDIO
    TITLE "0:"
    INDEX 01 00:21:64
  TRACK 20 AUDIO
    TITLE "13:cjc034_06658"
    INDEX 01 00:22:21
  TRACK 21 AUDIO
    TITLE "0:"
    INDEX 01 00:23:34
  TRACK 22 AUDIO
    TITLE "14:cjc034_06659"
    INDEX 01 00:23:67
  TRACK 23 AUDIO
    TITLE "0:"
    INDEX 01 00:25:19
  TRACK 24 AUDIO
    TITLE "15:cjc034_06660"
    INDEX 01 00:25:48
  TRACK 25 AUDIO
    TITLE "0:"
    INDEX 01 00:29:13
  TRACK 26 AUDIO
    TITLE "12:cjc034_06661"
    INDEX 01 00:30:50
  TRACK 27 AUDIO
    TITLE "0:"
    INDEX 01 00:31:59
  TRACK 28 AUDIO
    TITLE "13:cjc034_06662"
    INDEX 01 00:32:17
  TRACK 29 AUDIO
    TITLE "0:"
    INDEX 01 00:34:22
  TRACK 30 AUDIO
    TITLE "14:cjc034_06663"
    INDEX 01 00:34:51
  TRACK 31 AUDIO
    TITLE "0:"
    INDEX 01 00:35:61
  TRACK 32 AUDIO
    TITLE "15:cjc034_06664"
    INDEX 01 00:36:19
  TRACK 33 AUDIO
    TITLE "0:"
    INDEX 01 00:41:14
  TRACK 34 AUDIO
    TITLE "12:cjc034_06665"
    INDEX 01 00:42:61
  TRACK 35 AUDIO
    TITLE "0:"
    INDEX 01 00:44:01
  TRACK 36 AUDIO
    TITLE "13:cjc034_06666"
    INDEX 01 00:44:32
  TRACK 37 AUDIO
    TITLE "0:"
    INDEX 01 00:46:19
  TRACK 38 AUDIO
    TITLE "14:cjc034_06667"
    INDEX 01 00:46:66
  TRACK 39 AUDIO
    TITLE "0:"
    INDEX 01 00:48:04
  TRACK 40 AUDIO
    TITLE "15:cjc034_06668"
    INDEX 01 00:48:42
  TRACK 41 AUDIO
    TITLE "0:"
    INDEX 01 00:52:49
  TRACK 42 AUDIO
    TITLE "12:cjc034_06669"
    INDEX 01 00:54:09
  TRACK 43 AUDIO
    TITLE "0:"
    INDEX 01 00:55:28
  TRACK 44 AUDIO
    TITLE "13:cjc034_06670"
    INDEX 01 00:55:65
  TRACK 45 AUDIO
    TITLE "0:"
    INDEX 01 00:57:05
  TRACK 46 AUDIO
    TITLE "14:cjc034_06671"
    INDEX 01 00:57:37
  TRACK 47 AUDIO
    TITLE "0:"
    INDEX 01 00:58:58
  TRACK 48 AUDIO
    TITLE "15:cjc034_06672"
    INDEX 01 00:59:16
  TRACK 49 AUDIO
    TITLE "0:"
    INDEX 01 01:02:55
  TRACK 50 AUDIO
    TITLE "12:cjc034_06673"
    INDEX 01 01:04:17
  TRACK 51 AUDIO
    TITLE "0:"
    INDEX 01 01:05:38
  TRACK 52 AUDIO
    TITLE "13:cjc034_06674"
    INDEX 01 01:05:73
  TRACK 53 AUDIO
    TITLE "0:"
    INDEX 01 01:06:67
  TRACK 54 AUDIO
    TITLE "14:cjc034_06675"
    INDEX 01 01:07:31
  TRACK 55 AUDIO
    TITLE "0:"
    INDEX 01 01:08:50
  TRACK 56 AUDIO
    TITLE "15:cjc034_06676"
    INDEX 01 01:09:10
  TRACK 57 AUDIO
    TITLE "0:"
    INDEX 01 01:12:52
  TRACK 58 AUDIO
    TITLE "12:cjc034_06677"
    INDEX 01 01:14:12
  TRACK 59 AUDIO
    TITLE "0:"
    INDEX 01 01:15:19
  TRACK 60 AUDIO
    TITLE "13:cjc034_06678"
    INDEX 01 01:15:54
  TRACK 61 AUDIO
    TITLE "0:"
    INDEX 01 01:16:52
  TRACK 62 AUDIO
    TITLE "14:cjc034_06679"
    INDEX 01 01:17:10
  TRACK 63 AUDIO
    TITLE "0:"
    INDEX 01 01:18:17
  TRACK 64 AUDIO
    TITLE "15:cjc034_06680"
    INDEX 01 01:18:51
  TRACK 65 AUDIO
    TITLE "0:"
    INDEX 01 01:21:55
  TRACK 66 AUDIO
    TITLE "12:cjc034_06681"
    INDEX 01 01:23:18
  TRACK 67 AUDIO
    TITLE "0:"
    INDEX 01 01:24:37
  TRACK 68 AUDIO
    TITLE "13:cjc034_06682"
    INDEX 01 01:24:73
  TRACK 69 AUDIO
    TITLE "0:"
    INDEX 01 01:26:07
  TRACK 70 AUDIO
    TITLE "14:cjc034_06683"
    INDEX 01 01:26:44
  TRACK 71 AUDIO
    TITLE "0:"
    INDEX 01 01:27:67
  TRACK 72 AUDIO
    TITLE "15:cjc034_06684"
    INDEX 01 01:28:24
  TRACK 73 AUDIO
    TITLE "0:"
    INDEX 01 01:32:04
